<svg xmlns="http://www.w3.org/2000/svg" width="43.969" height="17.97" viewBox="0 0 43.969 17.97">
  <metadata><?xpacket begin="﻿" id="W5M0MpCehiHzreSzNTczkc9d"?>
<x:xmpmeta xmlns:x="adobe:ns:meta/" x:xmptk="Adobe XMP Core 5.6-c138 79.159824, 2016/09/14-01:09:01        ">
   <rdf:RDF xmlns:rdf="http://www.w3.org/1999/02/22-rdf-syntax-ns#">
      <rdf:Description rdf:about=""/>
   </rdf:RDF>
</x:xmpmeta>
                                                                                                    
                                                                                                    
                                                                                                    
                                                                                                    
                                                                                                    
                                                                                                    
                                                                                                    
                                                                                                    
                                                                                                    
                                                                                                    
                                                                                                    
                                                                                                    
                                                                                                    
                                                                                                    
                                                                                                    
                                                                                                    
                                                                                                    
                                                                                                    
                                                                                                    
                                                                                                    
                           
<?xpacket end="w"?></metadata>
<defs>
    <style>
      .cls-1 {
        fill: #fff;
        fill-rule: evenodd;
      }
    </style>
  </defs>
  <path id="Rounded_Rectangle_3" data-name="Rounded Rectangle 3" class="cls-1" d="M331.463,1348.4a1.983,1.983,0,0,0,0-2.81l-7.041-7.01a2.005,2.005,0,0,0-2.816,0,1.983,1.983,0,0,0,0,2.81l7.041,7.01A2.005,2.005,0,0,0,331.463,1348.4Zm-7.041-7.01,7.041-7.02a1.971,1.971,0,0,0,0-2.8,2.005,2.005,0,0,0-2.816,0l-7.041,7.01a1.983,1.983,0,0,0,0,2.81A2.005,2.005,0,0,0,324.422,1341.39Zm0.654-3.39h37.941a1.984,1.984,0,0,1,1.983,1.98v0.01a1.984,1.984,0,0,1-1.983,1.98H325.076a1.983,1.983,0,0,1-1.982-1.98v-0.01A1.983,1.983,0,0,1,325.076,1338Z" transform="translate(-321.031 -1331)"/>
</svg>
